<?xml version="1.0" encoding="UTF-8" standalone="no"?>
<!-- Created with Inkscape (http://www.inkscape.org/) -->

<svg
   xmlns:dc="http://purl.org/dc/elements/1.1/"
   xmlns:cc="http://creativecommons.org/ns#"
   xmlns:rdf="http://www.w3.org/1999/02/22-rdf-syntax-ns#"
   xmlns:svg="http://www.w3.org/2000/svg"
   xmlns="http://www.w3.org/2000/svg"
   xmlns:sodipodi="http://sodipodi.sourceforge.net/DTD/sodipodi-0.dtd"
   xmlns:inkscape="http://www.inkscape.org/namespaces/inkscape"
   width="68.039513mm"
   height="98.35714mm"
   viewBox="0 0 68.039512 98.35714"
   version="1.1"
   id="svg8"
   inkscape:version="0.92.4 (5da689c313, 2019-01-14)"
   sodipodi:docname="logo.svg">
  <defs
     id="defs2">
    <inkscape:path-effect
       effect="taper_stroke"
       id="path-effect874"
       is_visible="true"
       stroke_width="3.1"
       attach_start="1.48342"
       end_offset="1.6142409"
       smoothing="0.4"
       jointype="extrapolated"
       miter_limit="97.2" />
    <inkscape:path-effect
       effect="bspline"
       id="path-effect870"
       is_visible="true"
       weight="33.333333"
       steps="2"
       helper_size="0"
       apply_no_weight="true"
       apply_with_weight="true"
       only_selected="false" />
    <inkscape:path-effect
       effect="simplify"
       id="path-effect868"
       is_visible="true"
       steps="1"
       threshold="0.5"
       smooth_angles="360"
       helper_size="0"
       simplify_individual_paths="false"
       simplify_just_coalesce="false"
       simplifyindividualpaths="false"
       simplifyJustCoalesce="false" />
    <inkscape:path-effect
       effect="spiro"
       id="path-effect864"
       is_visible="true" />
    <inkscape:path-effect
       effect="simplify"
       id="path-effect862"
       is_visible="true"
       steps="1"
       threshold="0.5"
       smooth_angles="360"
       helper_size="0"
       simplify_individual_paths="false"
       simplify_just_coalesce="false"
       simplifyindividualpaths="false"
       simplifyJustCoalesce="false" />
    <inkscape:path-effect
       effect="simplify"
       id="path-effect858"
       is_visible="true"
       steps="1"
       threshold="0.5"
       smooth_angles="360"
       helper_size="0"
       simplify_individual_paths="false"
       simplify_just_coalesce="false"
       simplifyindividualpaths="false"
       simplifyJustCoalesce="false" />
    <inkscape:path-effect
       effect="simplify"
       id="path-effect854"
       is_visible="true"
       steps="1"
       threshold="0.5"
       smooth_angles="360"
       helper_size="0"
       simplify_individual_paths="false"
       simplify_just_coalesce="false"
       simplifyindividualpaths="false"
       simplifyJustCoalesce="false" />
  </defs>
  <sodipodi:namedview
     id="base"
     pagecolor="#ffffff"
     bordercolor="#666666"
     borderopacity="1.0"
     inkscape:pageopacity="0.0"
     inkscape:pageshadow="2"
     inkscape:zoom="0.98994949"
     inkscape:cx="80.077578"
     inkscape:cy="159.5437"
     inkscape:document-units="mm"
     inkscape:current-layer="layer1"
     showgrid="false"
     inkscape:window-width="1920"
     inkscape:window-height="1017"
     inkscape:window-x="-8"
     inkscape:window-y="-8"
     inkscape:window-maximized="1" />
  <metadata
     id="metadata5">
    <rdf:RDF>
      <cc:Work
         rdf:about="">
        <dc:format>image/svg+xml</dc:format>
        <dc:type
           rdf:resource="http://purl.org/dc/dcmitype/StillImage" />
        <dc:title></dc:title>
      </cc:Work>
    </rdf:RDF>
  </metadata>
  <g
     inkscape:label="Layer 1"
     inkscape:groupmode="layer"
     id="layer1"
     transform="translate(-84.67072,-27.423683)">
    <path
       style="opacity:1;fill:#f58219;fill-opacity:1;fill-rule:evenodd;stroke:none;stroke-width:4;stroke-linecap:butt;stroke-linejoin:round;stroke-miterlimit:4;stroke-dasharray:none;stroke-dashoffset:0;stroke-opacity:1;paint-order:normal"
       id="path848"
       d="m 70.809098,41.486949 c 0.03246,0.01143 0.06491,0.02289 0.0977,0.03336 0.04424,0.01302 0.08826,0.02676 0.132627,0.03935 0.06293,0.01754 0.125648,0.03581 0.18863,0.05317 0.08115,0.0218 0.162401,0.04324 0.243736,0.06434 0.09998,0.02495 0.199721,0.05086 0.29976,0.07557 0.120161,0.02871 0.240165,0.05806 0.360492,0.08606 0.139682,0.03216 0.279604,0.06329 0.419476,0.09462 0.157438,0.03424 0.314799,0.06883 0.472255,0.102984 0.173455,0.03715 0.347331,0.07228 0.521197,0.107442 0.187338,0.03726 0.374441,0.07565 0.561848,0.112559 0.195469,0.03786 0.39106,0.07511 0.586753,0.111795 0.201996,0.03785 0.404342,0.07379 0.606812,0.109008 0.20693,0.03558 0.41344,0.07356 0.620199,0.110112 0.210592,0.03724 0.421492,0.0727 0.632505,0.107452 0.214503,0.03529 0.429281,0.06885 0.64416,0.101759 0.218204,0.03338 0.436652,0.06516 0.655187,0.09632 0.221711,0.03158 0.443633,0.06166 0.665626,0.09117 0.225028,0.02988 0.450236,0.05835 0.67551,0.0863 0.228164,0.02827 0.456486,0.05523 0.684864,0.08168 0.231129,0.02675 0.462399,0.05227 0.693716,0.07731 0.233937,0.02532 0.467995,0.04947 0.702098,0.07318 0.236591,0.02394 0.47329,0.04682 0.710028,0.06927 0.239104,0.02265 0.478303,0.0443 0.717537,0.06557 0.120443,0.01072 0.240914,0.02109 0.361386,0.03146 0,0 -0.02307,0.01646 -0.02307,0.01646 v 0 C 82.919657,43.47488 82.799184,43.46448 82.678738,43.45378 82.439504,43.43251 82.2003,43.41086 81.961193,43.3882 81.724452,43.36574 81.48775,43.34287 81.251155,43.31892 c -0.234106,-0.02373 -0.46817,-0.04788 -0.702109,-0.0732 -0.231323,-0.02506 -0.462595,-0.05058 -0.69373,-0.07733 -0.228383,-0.02646 -0.45671,-0.05342 -0.684876,-0.0817 -0.22528,-0.02795 -0.450493,-0.05643 -0.675524,-0.08632 -0.222001,-0.02952 -0.443926,-0.0596 -0.665644,-0.09119 -0.218538,-0.03117 -0.436991,-0.06296 -0.655203,-0.09635 -0.214884,-0.03292 -0.429668,-0.06649 -0.644176,-0.101785 -0.211021,-0.03476 -0.421926,-0.07023 -0.632526,-0.107479 -0.206756,-0.03656 -0.413264,-0.07454 -0.620194,-0.110106 -0.202478,-0.03522 -0.404829,-0.07118 -0.606833,-0.109038 -0.195699,-0.03669 -0.391297,-0.07393 -0.586769,-0.111815 -0.187407,-0.03692 -0.374515,-0.07531 -0.561856,-0.112572 -0.173873,-0.03517 -0.34776,-0.0703 -0.521218,-0.107474 -0.157459,-0.03416 -0.314831,-0.06873 -0.472266,-0.103 -0.139877,-0.03134 -0.279807,-0.06245 -0.419491,-0.09464 -0.120333,-0.02802 -0.24035,-0.05735 -0.360514,-0.08609 -0.100041,-0.02474 -0.199794,-0.05062 -0.299778,-0.0756 -0.08134,-0.02111 -0.162607,-0.04254 -0.24376,-0.06438 -0.06299,-0.01738 -0.125704,-0.03567 -0.188643,-0.05319 -0.04438,-0.01262 -0.08843,-0.02635 -0.132681,-0.03943 -0.03277,-0.0105 -0.06521,-0.02201 -0.0977,-0.03336 0,0 0.02344,-0.01595 0.02344,-0.01595 z"
       inkscape:connector-curvature="0" />
    <g
       id="g891">
      <path
         style="fill:#4e7896;stroke-width:0.26458332"
         id="_227268128"
         d="m 104.26034,107.11572 c 0,0 -3.15889,1.92278 2.19743,2.47214 6.45496,0.82401 9.88856,0.68679 17.03025,-0.68669 0,0 1.92278,1.23604 4.53223,2.19749 -16.06886,6.86705 -36.395289,-0.41214 -23.75993,-3.98293 z m -2.06016,-8.927096 c 0,0 -3.433475,2.609406 1.92278,3.158756 7.00444,0.68679 12.49807,0.82401 21.97454,-1.09872 0,0 1.2361,1.37342 3.29615,2.06016 -19.36501,5.76834 -41.064916,0.54936 -27.19334,-4.120222 z m 37.90606,15.656826 c 0,0 2.33481,1.92283 -2.60947,3.43347 -9.20186,2.74685 -38.592915,3.57084 -46.833363,0 -2.884117,-1.23599 2.609519,-3.02149 4.394861,-3.29615 1.785453,-0.41198 2.746798,-0.41198 2.746798,-0.41198 -3.158701,-2.19749 -21.013075,4.53218 -9.064492,6.45496 32.824476,5.3563 59.880766,-2.33476 51.365416,-6.18032 z M 105.77099,88.849415 c 0,0 -14.970095,3.570843 -5.3562,4.806897 4.12023,0.549301 12.2233,0.412088 19.77711,-0.137327 6.18027,-0.549357 12.36069,-1.648074 12.36069,-1.648074 0,0 -2.19748,0.961335 -3.70829,1.922836 -15.24474,3.982773 -44.498418,2.197375 -36.120652,-1.922836 7.141713,-3.433577 13.047262,-3.021489 13.047262,-3.021489 z m 26.78166,14.970095 c 15.38213,-7.965781 8.24047,-15.656822 3.29615,-14.695379 -1.2361,0.274651 -1.78545,0.549357 -1.78545,0.549357 0,0 0.41203,-0.824063 1.37336,-1.098716 9.75128,-3.433578 17.44234,10.300467 -3.1587,15.656768 0,0 0.13722,-0.13732 0.27465,-0.41203 z m -25.27081,21.69988 c 14.83289,0.96145 37.49411,-0.54935 38.04338,-7.55369 0,0 -1.09866,2.74685 -12.22325,4.80684 -12.63538,2.33487 -28.29216,2.06016 -37.494099,0.54936 0,0 1.922725,1.64813 11.673949,2.19749 z"
         inkscape:connector-curvature="0" />
      <path
         style="fill:#f58219;stroke-width:0.26458332"
         id="_230367536"
         d="m 115.11029,65.226804 c -13.32209,10.575184 -3.02149,16.618161 0,23.485183 -7.82844,-7.004261 -13.45941,-13.18469 -9.6139,-18.95303 1.40777,-2.128784 3.43356,-3.982882 5.62673,-5.779035 2.19317,-1.796154 4.55372,-3.534364 6.631,-5.431374 0,0 -2.88555,7.017778 -2.64383,6.678256 z m 3.70829,17.716949 c 3.98278,4.532286 -1.09877,8.652563 -1.09877,8.652563 0,0 10.16321,-5.218986 5.49363,-11.674052 -1.06442,-1.545068 -2.06873,-2.89271 -2.69751,-4.206023 -0.62877,-1.313312 -0.88199,-2.592294 -0.44422,-4.000036 0.43777,-1.407743 1.56654,-2.944244 3.70177,-4.772601 2.13522,-1.828357 5.2769,-3.948567 9.74048,-6.523724 0,0 -28.15484,7.004447 -14.69538,22.5239 z"
         inkscape:connector-curvature="0"
         sodipodi:nodetypes="cccscccccsssccc" />
      <path
         sodipodi:nodetypes="ccccccccc"
         inkscape:connector-curvature="0"
         id="path842"
         d="m 118.75763,47.017388 h 7.28657 l -10.4383,10.438296 h 7.37331 l -7.86892,7.77112 -5.83676,0.411812 5.24083,-5.240837 h -6.036 z"
         style="fill:#f58219;fill-opacity:1;stroke:none;stroke-width:0.32384744px;stroke-linecap:butt;stroke-linejoin:miter;stroke-opacity:1" />
      <path
         inkscape:connector-curvature="0"
         id="path844"
         d="m 123.8817,64.308407 6.59213,-3.805976 h -5.08023 l 6.74322,-6.743218 h 5.87173 l -5.32184,5.321845 h 3.52646 l -12.29101,7.096215 z"
         style="fill:#f58219;fill-opacity:1;stroke:none;stroke-width:0.26458332px;stroke-linecap:butt;stroke-linejoin:miter;stroke-opacity:1" />
      <path
         transform="matrix(1.2303865,0,0,1.1430873,-31.186782,-4.0767383)"
         inkscape:original-d="m 108.85714,60.197915 c 0,0 -10.11086,0.94494 -10.11086,-8.504463 0,-9.449405 9.92187,-8.787947 9.92187,-8.787947 0.29004,0.01526 -1.61644,-12.059988 10.08787,-13.648488 12.08374,-1.639996 12.86361,10.537754 12.94104,10.496062 -0.54968,0.08561 11.3559,-7.70137 16.23337,7.310164 3.48491,10.725598 -9.09952,13.04004 -10.01637,13.181919"
         inkscape:path-effect="#path-effect874"
         sodipodi:nodetypes="cscscsc"
         inkscape:connector-curvature="0"
         id="path872"
         d="m 102.83371,42.443358 c -1.43921,0.627062 -2.83198,1.679432 -3.835703,3.172331 -1.200466,1.877116 -1.597288,4.035482 -1.467775,6.077763 0.09067,2.176931 0.799703,4.263751 2.127345,5.81535 1.212403,1.340626 2.714633,2.073856 4.013423,2.439073 3.13927,0.177219 5.18606,0.250048 5.18606,0.250048 0,0 -1.99991,-0.496476 -4.94958,-1.176719 -1.08852,-0.531156 -2.22886,-1.365686 -2.9222,-2.524765 -0.86175,-1.320174 -1.113772,-3.018517 -1.022952,-4.802987 0.129412,-1.681105 0.557592,-3.275866 1.449812,-4.386289 0.68113,-0.912173 1.67705,-1.577954 2.67525,-2.02862 1.07193,-0.473995 2.22179,-0.691285 3.08987,-0.777364 0.43404,-0.04304 0.79699,-0.05461 1.04331,-0.05558 0.12316,-4.87e-4 0.21719,0.0016 0.27646,0.0036 0.0593,0.002 0.0168,-5.87e-4 0.068,0.0028 l 0.0108,7.22e-4 0.0108,5.7e-4 c 0.3342,0.01758 0.71007,-0.100576 0.95163,-0.262702 0.24156,-0.162125 0.3703,-0.335437 0.45278,-0.466181 0.16497,-0.261488 0.1836,-0.397065 0.20745,-0.498917 0.0477,-0.203704 0.0451,-0.283513 0.0498,-0.36848 0.009,-0.169934 0.007,-0.305317 0.006,-0.475568 -0.002,-0.340503 -0.006,-0.783109 0.0148,-1.318497 0.0417,-1.070775 0.18812,-2.492367 0.63918,-3.910561 0.45105,-1.418195 1.19219,-2.816117 2.42394,-3.950348 1.23175,-1.13423 2.97051,-2.047998 5.6317,-2.409174 2.76542,-0.375321 4.72039,0.04128 6.19271,0.797029 1.47233,0.755744 2.5001,1.886212 3.24563,3.118197 0.74553,1.231985 1.18632,2.555449 1.4336,3.561758 0.12365,0.503154 0.19977,0.924936 0.2476,1.222704 0.0239,0.148884 0.0403,0.264049 0.0547,0.360323 0.007,0.04814 0.0122,0.08582 0.0257,0.156951 0.007,0.03556 0.009,0.06795 0.0461,0.189111 0.0185,0.06058 0.0228,0.130351 0.15734,0.353356 0.0673,0.111503 0.15336,0.288129 0.49047,0.504708 0.33712,0.21658 1.12502,0.302274 1.57359,0.06074 l 7.96408,-4.288238 -8.93745,1.391964 c 0.12307,-0.01917 0.30716,-0.102677 0.79405,0.08987 0.24345,0.09627 0.58238,0.32916 0.77998,0.682928 0.1976,0.353767 0.21464,0.733406 0.18051,0.971555 -0.0683,0.476299 -0.20891,0.589841 -0.27823,0.684281 -0.0693,0.09444 -0.1104,0.133822 -0.14012,0.163354 -0.11889,0.118129 -0.0907,0.07841 -0.0493,0.04999 0.0828,-0.05685 0.30049,-0.191171 0.59116,-0.340224 0.58134,-0.298105 1.47984,-0.675464 2.51544,-0.914855 1.75519,-0.388182 3.80049,-0.382426 5.47545,0.477952 2.6208,1.187384 4.33516,4.208175 5.56207,7.315067 0.75005,2.051561 1.00238,4.139909 0.36699,5.937822 -0.5392,1.632189 -1.7541,2.964835 -2.94549,3.901851 0,0 0,0 -1e-5,10e-7 -1.40179,1.096861 -2.92503,1.800953 -4.00722,2.230934 -1.47957,0.586222 -2.38972,0.773098 -2.38972,0.773098 0,0 0.92745,-0.05359 2.49412,-0.449387 1.14519,-0.288539 2.79242,-0.805747 4.42662,-1.790709 0,0 0,0 0,-10e-7 1.40532,-0.843496 2.9282,-2.166149 3.8377,-4.088687 0.97554,-2.155341 1.01531,-4.729933 0.29885,-7.191344 -0.91854,-3.496005 -2.75275,-7.150642 -6.27441,-9.221482 -2.44905,-1.32646 -5.20094,-1.474567 -7.54314,-0.915467 -0.89675,0.207295 -1.69044,0.484637 -2.35129,0.765335 -0.30509,-1.191241 -0.82426,-2.724542 -1.74751,-4.250214 -0.96958,-1.602242 -2.40732,-3.206106 -4.48219,-4.271138 -2.07487,-1.065033 -4.74879,-1.555647 -8.02524,-1.11097 -3.19096,0.433074 -5.60301,1.6244 -7.3147,3.200567 -1.71168,1.576167 -2.70661,3.493947 -3.27823,5.291219 -0.57162,1.797273 -0.73444,3.490913 -0.78265,4.729595 -0.006,0.156762 -0.0103,0.306562 -0.0132,0.448122 -0.0928,0.0074 -0.18867,0.01591 -0.28747,0.02571 -1.09574,0.108654 -2.54968,0.369086 -4.03765,1.02705 z"
         style="fill:#f58219;fill-rule:nonzero;stroke:none;stroke-width:2;stroke-linecap:butt;stroke-linejoin:round;stroke-miterlimit:4;stroke-dasharray:none;stroke-opacity:1" />
    </g>
  </g>
</svg>
